<svg width="400" height="40" viewBox="0 0 400 40" fill="none" xmlns="http://www.w3.org/2000/svg">
  <!-- MaverickX logo -->
  <path fill-rule="evenodd" clip-rule="evenodd" d="M180.683 7.63087C180.683 5.72648 182.38 4.24606 184.586 4.24606C186.835 4.24606 188.531 5.72698 188.531 7.63087C188.531 9.57736 186.834 11.0583 184.586 11.0583C182.379 11.0583 180.683 9.57736 180.683 7.63087ZM182.168 13.8933H187.004V35.4724H182.168V13.8933ZM55.2332 6.277H62.7849L70.1667 20.5785H71.0998L78.5244 6.277H86.3304V35.4724H81.1123V16.009H80.1789L73.3485 29.7602H68.1728L61.3849 16.009H60.4515V35.4724H55.2332V6.277ZM113.567 13.8933V35.4724H108.731V31.1564C107.119 34.1182 104.361 35.98 100.84 35.98C94.9004 35.98 90.4033 31.1141 90.4033 24.6827C90.4033 18.2514 94.9006 13.3854 100.84 13.3854C104.361 13.3854 107.119 15.2472 108.731 18.209V13.8933H113.567ZM108.731 24.6827C108.731 21.7632 105.888 19.5629 102.07 19.5629C98.2515 19.5629 95.4519 21.7632 95.4519 24.6827C95.4519 27.6022 98.252 29.8025 102.07 29.8025C105.888 29.8025 108.731 27.6022 108.731 24.6827ZM121.204 13.8933H116.113L124.173 35.4724H130.834L138.895 13.8933H133.295L127.61 28.4487H126.888L121.204 13.8933ZM162.271 26.5022H144.071C144.962 28.8293 147.465 30.311 150.901 30.311C153.447 30.311 155.695 29.5918 156.671 28.6609H162.016C160.404 33.019 156.077 35.9808 150.774 35.9808C144.071 35.9808 139.066 31.1148 139.066 24.6835C139.066 18.2521 144.072 13.3862 150.733 13.3862C157.393 13.3862 162.4 18.2098 162.4 24.8105C162.401 25.3769 162.358 25.9425 162.271 26.5022ZM144.113 22.8217H157.435C156.586 20.4946 153.956 19.056 150.732 19.056C147.55 19.0552 145.004 20.5362 144.113 22.8217ZM178.732 21.1709V13.5548C175.294 13.5548 172.538 15.7125 170.841 19.2667V13.8933H166.005V35.4724H170.841V26.4175C170.841 23.0327 173.599 21.1709 178.732 21.1709ZM202.362 13.3854C195.702 13.3854 190.696 18.2514 190.696 24.6827C190.696 31.1141 195.701 35.98 202.362 35.98C208.217 35.98 212.842 32.172 213.775 26.7983H208.514C207.538 28.6178 205.163 29.8025 202.362 29.8025C198.544 29.8025 195.702 27.6022 195.702 24.6827C195.702 21.7632 198.543 19.5629 202.362 19.5629C205.163 19.5629 207.538 20.7479 208.514 22.5671H213.775C212.842 17.1942 208.216 13.3854 202.362 13.3854ZM225.271 27.0945L222.132 29.3793V35.4724H217.295V5.00757H222.132V21.2977H223.065L230.362 13.8933H238.465L229.132 23.7097L238.72 35.4724H232.441L225.271 27.0945ZM266.827 35.4724L256.221 20.8747L266.87 6.277H264.113L254.609 18.4629H253.253L243.834 6.277H241.246L251.766 20.79L240.948 35.4724H243.705L253.378 23.2442H254.693L264.281 35.4724H266.827Z" fill="black"/>
  <path d="M45.8021 20.3991L28.5971 0.612915L21.88 13.3699L10.3066 0.67582L0 21.5349L10.3064 9.94646L17.1774 21.5349L10.3064 39.6129L28.0564 20.1442L23.4664 15.1099L28.3405 9.88156L34.8885 21.5918L27.5182 39.5405L45.8021 20.3991Z" fill="#5B00D8"/>
  <!-- Vision text -->
  <text x="280" y="33" font-family="Inter, Arial, sans-serif" font-size="34" font-weight="300" letter-spacing="0.03em" fill="#B5B5B5">Vision</text>
</svg> 